<svg width="180" height="180" viewBox="0 0 180 180" fill="none" xmlns="http://www.w3.org/2000/svg">
<g clip-path="url(#clip0_1747_480)">
<path d="M0 90C0 40.2944 40.2944 0 90 0V0C139.706 0 180 40.2944 180 90V90C180 139.706 139.706 180 90 180V180C40.2944 180 0 139.706 0 90V90Z" fill="url(#paint0_linear_1747_480)"/>
<g filter="url(#filter0_f_1747_480)">
<path fill-rule="evenodd" clip-rule="evenodd" d="M-2.67007 32.0417C-10.0403 30.9659 -12.2343 50.9913 -17.4465 60.2029C-21.1564 66.7595 -25.5675 71.4187 -28.9541 78.494C-32.9189 86.7774 -39.6209 94.38 -38.9537 105.136C-38.266 116.223 -29.1874 119.144 -25.8443 128.626C-22.6548 137.673 -24.9373 151.791 -20.1809 158.385C-15.5066 164.864 -8.09116 156.421 -2.67007 160.751C8.50015 169.672 15.4902 202.078 27.3156 196.319C37.5593 191.331 33.3412 161.275 34.3918 142.703C35.1118 129.975 30.8886 117.62 32.4736 105.136C34.7281 87.3783 52.4145 69.7665 45.3399 56.472C37.2663 41.3001 22.1117 70.0988 10.7528 64.3188C3.33867 60.546 5.02267 33.1645 -2.67007 32.0417Z" fill="#91E947"/>
</g>
<path d="M86.3535 64.4141C92.5937 64.4141 98.1024 66.0842 102.686 69.3682L102.771 69.4287L102.823 69.5176C102.823 69.518 102.824 69.5192 102.825 69.5205C102.827 69.5231 102.83 69.5276 102.833 69.5332C102.84 69.545 102.852 69.5627 102.866 69.585C102.896 69.6301 102.937 69.6922 102.987 69.7598C103.096 69.9072 103.209 70.0345 103.291 70.0938C107.89 73.3934 110.433 77.1943 112.105 82.7578L112.328 83.4795C113.405 87.1763 113.946 92.2452 113.946 98.6973C113.946 105.578 113.331 110.96 112.09 114.668C110.429 120.378 107.252 124.971 102.657 128.268C98.0721 131.568 92.5346 133.224 86.2109 133.224C79.8868 133.224 74.3211 131.554 69.709 128.271L69.2793 127.958C64.8796 124.697 61.7746 120.207 60.0557 114.628V114.626C58.8344 110.613 58.2324 105.24 58.2324 98.6826C58.2324 92.1293 58.8331 86.7838 60.0547 82.8691C61.7574 77.2224 64.9518 72.6527 69.5938 69.3535C74.2106 66.0662 80.1213 64.4141 86.3535 64.4141ZM86.0967 75.3359C82.3308 75.3359 79.1544 76.352 76.5957 78.3467C74.0328 80.3447 72.2753 83.0752 71.3564 86.5059C70.7406 89.2691 70.3984 93.4266 70.3984 98.8262C70.3985 104.226 70.7399 108.384 71.3701 111.189C72.1884 114.587 73.9298 117.317 76.5215 119.316C79.0965 121.292 82.3056 122.308 86.1094 122.328L86.1357 122.315H86.2539C89.9173 122.315 93.0653 121.3 95.6113 119.318C98.1764 117.318 99.9354 114.585 100.854 111.136C101.553 108.291 101.937 104.222 101.938 98.8262C101.938 93.4212 101.594 89.2747 100.963 86.4541H100.962C100.043 83.0723 98.2588 80.3318 95.6709 78.3496C93.068 76.3527 89.8624 75.336 86.0967 75.3359Z" fill="white" stroke="white"/>
<path d="M108.799 9.7998C112.814 9.79989 116.353 10.8709 119.311 12.9736H119.328L119.38 13.0117C122.348 15.1401 124.404 18.0652 125.488 21.6797H125.487C126.282 24.1109 126.684 27.5366 126.684 32.0312C126.684 36.5229 126.283 40.005 125.488 42.4082C124.419 46.1089 122.349 49.0934 119.38 51.2227C116.411 53.3514 112.838 54.4336 108.727 54.4336C104.616 54.4335 101.014 53.3513 98.0312 51.2227C95.0346 49.0801 92.922 46.1121 91.7803 42.3838L91.7793 42.3828C90.9994 39.7975 90.5986 36.3157 90.5986 32.0312C90.5986 27.7478 90.9853 24.2931 91.7803 21.749C92.8649 18.0782 94.9349 15.1393 97.9453 12.9971L97.9463 12.9961C100.931 10.8811 104.762 9.7998 108.799 9.7998ZM108.612 17.8057C106.321 17.8057 104.378 18.4383 102.816 19.6514C101.253 20.8804 100.175 22.557 99.6133 24.6484C99.2333 26.3423 99.0332 28.8529 99.0332 32.1172C99.0332 35.383 99.2471 37.8956 99.6279 39.6045L99.7295 39.9883C100.269 41.8859 101.308 43.4297 102.787 44.5684L103.09 44.791C104.618 45.8644 106.49 46.4077 108.68 46.4131L108.684 46.3994C110.932 46.3994 112.846 45.7815 114.408 44.5684C115.972 43.3539 117.051 41.6777 117.612 39.5713C118.049 37.8365 118.277 35.3544 118.277 32.1025C118.277 28.854 118.064 26.329 117.684 24.6201C117.157 22.6729 116.164 21.0777 114.742 19.8848L114.452 19.6514C112.862 18.4241 110.905 17.8057 108.612 17.8057Z" fill="white" stroke="white" stroke-width="0.4"/>
<path d="M66.0088 141.101C68.7191 141.101 71.1202 141.826 73.1025 143.255L73.6055 143.616H73.5449C75.2866 145.016 76.511 146.843 77.1797 149.074L77.2744 149.388C77.736 150.994 77.9756 153.189 77.9756 155.998C77.9756 158.987 77.718 161.325 77.1807 162.929C76.4684 165.414 75.0853 167.413 73.0879 168.842C71.1055 170.27 68.7046 170.995 65.9521 170.995C63.1994 170.995 60.7838 170.27 58.7871 168.842V168.841C56.7766 167.413 55.3644 165.417 54.5947 162.919C54.0573 161.19 53.7998 158.851 53.7998 155.998C53.7998 153.143 54.0718 150.819 54.5947 149.119C55.3219 146.663 56.7204 144.681 58.7305 143.254L59.1113 142.994C61.0504 141.737 63.4706 141.101 66.0088 141.101ZM65.9238 147.391C64.5318 147.391 63.3614 147.766 62.4297 148.492C61.4801 149.235 60.8309 150.24 60.498 151.502C60.2749 152.525 60.1475 154.05 60.1475 156.041C60.1475 158.037 60.2616 159.561 60.499 160.597C60.8034 161.842 61.4513 162.859 62.3984 163.587C63.3142 164.28 64.4337 164.653 65.7666 164.687V164.676H65.9668C67.3147 164.676 68.4707 164.301 69.4033 163.574L69.4043 163.573C70.3518 162.845 71.0009 161.827 71.334 160.564C71.5994 159.516 71.7422 158.02 71.7422 156.026C71.7422 154.029 71.6275 152.503 71.3896 151.468H71.3887C71.0558 150.225 70.3955 149.222 69.4482 148.494C68.4865 147.766 67.3152 147.391 65.9238 147.391Z" fill="white" stroke="white" stroke-width="0.4"/>
</g>
<defs>
<filter id="filter0_f_1747_480" x="-139" y="-68" width="286" height="365" filterUnits="userSpaceOnUse" color-interpolation-filters="sRGB">
<feFlood flood-opacity="0" result="BackgroundImageFix"/>
<feBlend mode="normal" in="SourceGraphic" in2="BackgroundImageFix" result="shape"/>
<feGaussianBlur stdDeviation="50" result="effect1_foregroundBlur_1747_480"/>
</filter>
<linearGradient id="paint0_linear_1747_480" x1="173.037" y1="179.623" x2="149.251" y2="-24.4873" gradientUnits="userSpaceOnUse">
<stop stop-color="#01A5CC"/>
<stop offset="0.511244" stop-color="#01A5CC"/>
<stop offset="1" stop-color="#91E947"/>
</linearGradient>
<clipPath id="clip0_1747_480">
<path d="M0 90C0 40.2944 40.2944 0 90 0V0C139.706 0 180 40.2944 180 90V90C180 139.706 139.706 180 90 180V180C40.2944 180 0 139.706 0 90V90Z" fill="white"/>
</clipPath>
</defs>
</svg>
